<svg width="176" height="176" viewBox="0 0 176 176" fill="none" xmlns="http://www.w3.org/2000/svg">
<g filter="url(#filter0_d_29500_113)">
<rect x="8" y="8" width="160" height="160" rx="12" fill="#2B0E11"/>
<rect x="9" y="9" width="158" height="158" rx="11" stroke="#EE9430" stroke-width="2"/>
</g>
<g filter="url(#filter1_d_29500_113)">
<path d="M93.1602 82.6133C93.0664 82.6836 92.8789 82.7656 92.5977 82.8594C92.3398 82.9531 92.1641 83.0469 92.0703 83.1406H91.6133C92.1523 82.1562 92.8555 81.3828 93.7227 80.8203V80.3984H94.0391C94.1328 80.1641 94.2852 79.9297 94.4961 79.6953C94.8008 79.3906 94.9883 79.1914 95.0586 79.0977H95.1641C94.3203 81.0898 93.6523 82.2617 93.1602 82.6133ZM93.2656 83.9844C93.2891 83.9609 93.3711 83.7852 93.5117 83.457H93.7227C93.6992 83.6445 93.6289 83.8203 93.5117 83.9844H93.2656ZM93.1602 84.1953C92.8555 84.3594 92.6328 84.5 92.4922 84.6172H92.3867C92.4102 84.4766 92.4453 84.3711 92.4922 84.3008C92.5156 84.2773 92.5742 84.2422 92.668 84.1953C92.7383 84.1484 92.7969 84.1133 92.8438 84.0898H93.1602V84.1953ZM91.7188 85.0391V84.9336C91.8828 84.8633 92 84.793 92.0703 84.7227H92.1758C92.1523 84.793 92.1172 84.8984 92.0703 85.0391H91.7188ZM90.9453 85.25C90.9219 85.2969 90.8867 85.3438 90.8398 85.3906C90.793 85.4141 90.4297 85.5898 89.75 85.918C89.5391 85.9648 89.2344 85.9297 88.8359 85.8125C88.4844 85.7188 88.1914 85.7539 87.957 85.918H87.7461C87.7695 86.1758 87.9102 86.3867 88.168 86.5508C88.0742 86.6211 87.8398 86.668 87.4648 86.6914C87.0898 86.7148 86.8906 86.7383 86.8672 86.7617C86.5391 86.7383 86.3164 86.668 86.1992 86.5508C86.082 86.5039 86.0117 86.4688 85.9883 86.4453C87.4883 85.9766 88.8477 85.2617 90.0664 84.3008H90.9453C90.8516 84.582 90.6641 84.793 90.3828 84.9336C90.4531 85.0508 90.6406 85.1562 90.9453 85.25ZM89.3984 86.4453C89.3047 86.375 89.2578 86.3281 89.2578 86.3047C89.3281 86.2344 89.375 86.1758 89.3984 86.1289H89.6094C89.6094 86.1758 89.5391 86.2812 89.3984 86.4453ZM80.3281 92.5977H80.2227C79.9883 91.9883 79.918 91.5195 80.0117 91.1914C80.1758 91.332 80.2578 91.5312 80.2578 91.7891C80.2344 92.0703 80.2578 92.2695 80.3281 92.3867V92.5977ZM79.8711 90.2422C79.918 90.2891 79.9766 90.3828 80.0469 90.5234C80.0938 90.6406 80.1523 90.7227 80.2227 90.7695C80.1758 90.8164 80.1406 90.8516 80.1172 90.875C80.0703 90.9219 80.0352 90.957 80.0117 90.9805C79.8945 90.7461 79.8477 90.5 79.8711 90.2422ZM79.7656 89.7148H79.8711V89.9258H79.7656V89.7148ZM79.5547 88.5547C79.25 87.5234 79.0625 86.8203 78.9922 86.4453C78.9922 86.3516 79.0391 86.0938 79.1328 85.6719C79.25 85.2734 79.2852 84.9922 79.2383 84.8281C79.168 84.6406 78.9805 84.3945 78.6758 84.0898C78.4414 83.832 78.3242 83.5859 78.3242 83.3516H78.9922C79.1328 83.5859 79.2148 83.7266 79.2383 83.7734C79.332 83.9375 79.332 84.4766 79.2383 85.3906C79.8477 86.5156 80.0586 87.9219 79.8711 89.6094C79.6836 89.5156 79.5898 89.3516 79.5898 89.1172C79.5664 88.7188 79.5547 88.5312 79.5547 88.5547ZM93.5117 62.4688C93.1367 62.4219 92.7734 62.3047 92.4219 62.1172C91.9766 61.8594 91.6367 61.6953 91.4023 61.625C91.2148 61.5781 90.8047 61.543 90.1719 61.5195C89.75 61.2148 89.5625 61.0742 89.6094 61.0977C89.5156 61.0742 89.3867 61.0742 89.2227 61.0977C89.0352 61.1445 88.9062 61.1797 88.8359 61.2031C88.7188 61.2031 88.4141 61.168 87.9219 61.0977C87.4766 61.0273 87.125 61.0273 86.8672 61.0977C85.4609 61.4492 84.6875 61.625 84.5469 61.625C82.0156 61.625 80.457 61.8711 79.8711 62.3633H79.7656V61.9414C80.1875 61.8711 80.6328 61.6836 81.1016 61.3789C81.6875 60.9805 82.0977 60.7344 82.332 60.6406C82.5898 60.5469 82.9414 60.5234 83.3867 60.5703C83.832 60.5938 84.1367 60.582 84.3008 60.5352C84.3477 60.5352 84.4297 60.4883 84.5469 60.3945C84.6641 60.3008 84.7344 60.2422 84.7578 60.2188C84.9688 60.1719 85.2617 60.1719 85.6367 60.2188C86.1289 60.2891 86.3867 60.3242 86.4102 60.3242C86.5039 60.3242 86.7969 60.2891 87.2891 60.2188C87.7344 60.1484 88.0273 60.1133 88.168 60.1133C89.8789 60.3477 91.7305 61.0273 93.7227 62.1523C93.6758 62.1992 93.6055 62.3047 93.5117 62.4688ZM92.7383 63.7344C89.9023 62.5625 88.1211 61.9648 87.3945 61.9414C87.4414 61.918 87.5 61.8828 87.5703 61.8359C87.6641 61.7891 87.7227 61.7539 87.7461 61.7305C88.7539 61.7539 90.4531 62.2461 92.8438 63.207C92.7969 63.3477 92.7617 63.4531 92.7383 63.5234V63.7344ZM92.5977 65.3164C92.3398 65.2695 92.1641 65.1992 92.0703 65.1055C91.9531 65.0352 91.8711 64.9297 91.8242 64.7891C91.8711 64.8125 92.1289 64.9531 92.5977 65.2109V65.3164ZM92.2812 67.8828C92.3047 67.8125 92.1875 67.9531 91.9297 68.3047H91.8242C91.8477 68.0469 91.9297 67.8008 92.0703 67.5664H92.3867C92.3633 67.707 92.3281 67.8125 92.2812 67.8828ZM91.7188 64.8945C91.3672 64.8711 91.0039 64.7656 90.6289 64.5781C90.1133 64.3203 89.8203 64.1797 89.75 64.1562C89.6797 64.1328 88.2734 64.1328 85.5312 64.1562V63.8398C88.8359 63.6992 90.7578 63.8398 91.2969 64.2617C91.2031 64.2148 91.3438 64.3555 91.7188 64.6836V64.8945ZM83 62.9961C83.0234 63.0195 83.1289 63.0898 83.3164 63.207C83.457 63.2773 83.7031 63.2188 84.0547 63.0312C84.3594 62.8906 84.5938 62.7383 84.7578 62.5742C85.1094 62.5977 85.4023 62.5977 85.6367 62.5742C85.6602 62.5977 85.6953 62.6328 85.7422 62.6797V62.7852C84.1719 63.0898 83.1758 63.5469 82.7539 64.1562C82.6602 64.1328 82.5898 64.0977 82.543 64.0508C82.5195 64.0273 82.5664 63.8867 82.6836 63.6289C82.8008 63.3711 82.9062 63.1953 83 63.1016V62.9961ZM85.0742 65.5273C84.6758 65.668 84.3711 65.9258 84.1602 66.3008C83.9258 66.7227 83.75 66.9688 83.6328 67.0391C83.5625 67.0391 83.457 67.0508 83.3164 67.0742C83.1758 67.0977 83.0703 67.1211 83 67.1445V67.25C82.9297 67.2969 82.8359 67.4023 82.7188 67.5664C82.6016 67.707 82.5078 67.8125 82.4375 67.8828C82.3906 67.9062 82.2969 67.9297 82.1562 67.9531C82.0156 68 81.9219 68.0469 81.875 68.0938C81.8516 68.1875 81.8164 68.3633 81.7695 68.6211C81.6758 68.7383 81.4414 68.8906 81.0664 69.0781C80.7383 69.2422 80.5273 69.4414 80.4336 69.6758H80.2227C80.2227 69.6758 80.2578 69.4883 80.3281 69.1133C80.375 68.7617 80.4102 68.5625 80.4336 68.5156C80.4805 68.4453 80.6094 68.3516 80.8203 68.2344C81.0312 68.1172 81.1602 68 81.207 67.8828V67.1445C81.418 67.0039 81.6758 66.8164 81.9805 66.582C82.4961 65.9492 82.8828 65.5742 83.1406 65.457C83.4922 65.2695 84.1367 65.1875 85.0742 65.2109V65.5273ZM80.6445 66.2656V66.6875C80.4805 66.6172 80.3984 66.5703 80.3984 66.5469C80.3984 66.5469 80.4219 66.5234 80.4688 66.4766C80.4922 66.4062 80.5156 66.3359 80.5391 66.2656H80.6445ZM99.4883 74.7734C99.6055 74.0938 99.6758 73.8125 99.6992 73.9297C99.5117 73.8125 99.3828 73.2969 99.3125 72.3828C99.2422 71.3281 99.1484 70.6719 99.0312 70.4141C98.9375 70.25 98.7031 69.9922 98.3281 69.6406C97.9766 69.3359 97.7656 69.0312 97.6953 68.7266C97.6484 68.5625 97.6836 68.3867 97.8008 68.1992C97.8945 68.0352 97.9297 67.9297 97.9062 67.8828C97.8828 67.7656 97.8125 67.5078 97.6953 67.1094C97.5781 66.7109 97.5078 66.4648 97.4844 66.3711C97.4609 66.2773 97.5195 66.1016 97.6602 65.8438C97.8008 65.6094 97.8125 65.3984 97.6953 65.2109C97.6953 65.1875 97.625 65.1406 97.4844 65.0703C97.3438 64.9766 97.2734 64.918 97.2734 64.8945C97.1797 64.7539 97.0977 64.5547 97.0273 64.2969C96.9805 64.0625 96.9102 63.875 96.8164 63.7344C96.7461 63.6875 96.6523 63.6172 96.5352 63.5234C96.418 63.4297 96.3242 63.3594 96.2539 63.3125C96.207 63.2422 96.1719 63.1133 96.1484 62.9258C96.125 62.7617 96.0898 62.6445 96.043 62.5742C95.9727 62.5039 95.8555 62.4219 95.6914 62.3281C95.457 62.2344 95.3164 62.1758 95.2695 62.1523C91.8477 59.7148 88.1914 58.8242 84.3008 59.4805C84.2305 59.5039 83.9609 59.5039 83.4922 59.4805C83.0234 59.457 82.7422 59.457 82.6484 59.4805C82.625 59.5039 82.5781 59.5625 82.5078 59.6562C82.4141 59.75 82.3555 59.7969 82.332 59.7969C81.8398 59.8438 81.4648 59.8789 81.207 59.9023C79.4023 60.8398 78.5586 61.3086 78.6758 61.3086C78.6523 61.4258 78.6172 61.6367 78.5703 61.9414C78.1953 61.9883 77.8789 62.1875 77.6211 62.5391C77.5742 62.6094 77.4805 62.7617 77.3398 62.9961C77.1992 63.1836 77.0938 63.3242 77.0234 63.418C76.9297 63.5117 76.7188 63.6406 76.3906 63.8047C76.0859 63.9688 75.8867 64.1211 75.793 64.2617C75.6992 64.4492 75.582 64.7188 75.4414 65.0703C75.3242 65.4219 75.2188 65.6797 75.125 65.8438C75.0781 65.9141 74.9727 66.0195 74.8086 66.1602C74.6211 66.2773 74.5039 66.3828 74.457 66.4766C74.5742 66.8516 74.5391 67.1797 74.3516 67.4609C74.3516 67.8594 74.4688 68.1406 74.7031 68.3047C74.6328 68.2812 75.1836 68.0703 76.3555 67.6719C76.3789 67.3906 76.4141 67.1445 76.4609 66.9336C76.625 66.8867 77.1641 66.5352 78.0781 65.8789C78.9688 65.2227 79.4609 64.8242 79.5547 64.6836C79.625 64.5898 79.6953 64.3555 79.7656 63.9805C79.8359 63.6992 79.9531 63.5117 80.1172 63.418C80.4453 63.2305 81.0312 63.0195 81.875 62.7852C81.9219 62.8086 81.9922 62.8438 82.0859 62.8906V62.9961C81.7812 63.2305 81.3594 63.6406 80.8203 64.2266C80.2812 64.8125 79.8594 65.2109 79.5547 65.4219C78.0547 66.5 77.0586 67.25 76.5664 67.6719C76.543 67.6719 76.5312 67.7422 76.5312 67.8828C76.5312 68.0234 76.5078 68.1289 76.4609 68.1992L76.3555 68.3398C76.2852 68.3164 76.2031 68.3047 76.1094 68.3047C76.1094 68.4922 76.0742 68.7617 76.0039 69.1133C75.9336 69.5117 75.8867 69.7695 75.8633 69.8867C75.7695 70.4961 75.8516 70.9531 76.1094 71.2578C76.0859 71.7031 75.8281 72.0898 75.3359 72.418C75.3828 72.8633 75.5 73.1914 75.6875 73.4023V73.5078C75.9219 73.4141 76.0625 73.2617 76.1094 73.0508C76.2266 72.6992 76.3086 72.4883 76.3555 72.418H76.5664C76.5898 72.3711 76.5781 72.2773 76.5312 72.1367C76.4609 71.9961 76.4727 71.8789 76.5664 71.7852C76.5898 71.7617 76.6602 71.75 76.7773 71.75C76.8945 71.75 76.9766 71.7266 77.0234 71.6797C76.9766 71.7266 76.9766 71.5508 77.0234 71.1523C77.7031 70.2148 78.0312 69.7578 78.0078 69.7812C78.0312 69.6641 78.0898 69.4297 78.1836 69.0781C78.2539 68.7969 78.3008 68.5742 78.3242 68.4102C78.418 68.2461 78.6172 68.0234 78.9219 67.7422C79.2031 67.4844 79.4141 67.168 79.5547 66.793C79.6484 66.7695 79.7188 66.7344 79.7656 66.6875H80.2227C80.0586 67.3672 79.5781 68.293 78.7812 69.4648C78.6172 69.6992 78.4766 70.1328 78.3594 70.7656C78.2422 71.4219 78.125 71.8672 78.0078 72.1016C77.9844 72.125 77.7852 72.3945 77.4102 72.9102C77.1992 73.1914 77.1055 73.5664 77.1289 74.0352C77.0117 73.9883 76.9297 73.9531 76.8828 73.9297H76.6719C76.6719 74.2578 76.7422 74.4805 76.8828 74.5977C76.9062 74.6211 76.9766 74.668 77.0938 74.7383C77.1875 74.8086 77.2695 74.8906 77.3398 74.9844C77.5039 74.9609 77.6094 74.9258 77.6562 74.8789C77.9375 74.7383 78.3008 74.2578 78.7461 73.4375C79.1914 72.6172 79.4258 71.9961 79.4492 71.5742C79.7539 71.5273 80.0469 71.2695 80.3281 70.8008C80.6562 70.2617 80.8789 69.957 80.9961 69.8867H81.4531C81.5 69.8398 81.6055 69.6992 81.7695 69.4648C81.957 69.207 82.0625 69.0664 82.0859 69.043C82.1328 68.9961 82.2031 68.9727 82.2969 68.9727C82.4141 68.9727 82.4961 68.9609 82.543 68.9375C82.7305 68.7969 82.9531 68.5508 83.2109 68.1992C83.5156 67.8242 83.7383 67.5781 83.8789 67.4609C84.043 67.2969 84.3828 67.0977 84.8984 66.8633C85.3672 66.6523 85.6836 66.418 85.8477 66.1602C86.7148 66.1133 87.2305 66.1484 87.3945 66.2656C87.582 66.1953 87.7695 65.9844 87.957 65.6328C89.2695 65.6797 89.8672 65.7148 89.75 65.7383C89.8906 65.9727 90.2188 66.2539 90.7344 66.582C90.5469 68.5039 90.4297 69.4297 90.3828 69.3594C91.0156 69.5938 91.5898 69.582 92.1055 69.3242C92.2461 69.2539 92.457 69.125 92.7383 68.9375C93.0195 68.7266 93.2305 68.5859 93.3711 68.5156C94.3086 69.8516 94.8242 70.6953 94.918 71.0469C95.082 71.5156 95.0352 72.043 94.7773 72.6289C94.707 72.793 94.6016 73.0039 94.4609 73.2617C94.2969 73.543 94.1914 73.7305 94.1445 73.8242C94.0508 74.0352 94.0039 74.3867 94.0039 74.8789C93.9805 75.3711 93.9219 75.7227 93.8281 75.9336C93.7578 75.9805 93.6055 76.0859 93.3711 76.25C92.9258 77 92.668 77.3867 92.5977 77.4102H91.8242C91.8008 77.4336 91.7539 77.5039 91.6836 77.6211C91.6133 77.7383 91.5547 77.8086 91.5078 77.832C91.5312 78.0195 91.6367 78.2656 91.8242 78.5703C91.8945 78.5938 91.9883 78.6172 92.1055 78.6406C92.2227 78.6641 92.3164 78.6758 92.3867 78.6758C92.3867 79.0273 92.3164 79.2852 92.1758 79.4492C92.0586 79.6602 91.8008 79.8711 91.4023 80.082C90.8867 80.3633 90.5938 80.5391 90.5234 80.6094C90.4062 80.6797 90.2305 80.9023 89.9961 81.2773C89.7617 81.582 89.5625 81.7812 89.3984 81.875C88.9766 82.1094 88.3203 82.3203 87.4297 82.5078C86.4453 82.7188 85.8125 82.7539 85.5312 82.6133C85.2266 82.6133 85.0391 82.5898 84.9688 82.543C84.875 82.4727 84.8047 82.3203 84.7578 82.0859C84.5234 82.0391 83.9609 82.0859 83.0703 82.2266C82.3906 82.3203 81.8867 82.2383 81.5586 81.9805C81.3711 81.9102 81.1836 81.6289 80.9961 81.1367C80.3867 81.0195 79.9766 81.0195 79.7656 81.1367C79.7422 81.1602 79.707 81.2305 79.6602 81.3477C79.6133 81.4648 79.5781 81.5352 79.5547 81.5586C79.4609 81.5586 79.2734 81.5703 78.9922 81.5938C78.7578 81.6172 78.582 81.6406 78.4648 81.6641C78.2773 81.7344 78.0195 81.9336 77.6914 82.2617C77.3867 82.5664 77.1172 82.7539 76.8828 82.8242C76.8125 85.2383 77.293 87.4297 78.3242 89.3984C78.1602 89.8203 78.125 90.1719 78.2188 90.4531C78.5703 91.3906 78.7227 92.1758 78.6758 92.8086C78.4414 95.6445 78.5117 96.9805 78.8867 96.8164C79.0508 97.3555 79.1211 97.7891 79.0977 98.1172C79.5898 98.2109 79.9297 98.1758 80.1172 98.0117H80.3281C80.3516 97.0977 80.2812 96.5234 80.1172 96.2891C80.1406 96.0781 80.1758 95.9375 80.2227 95.8672V95.7617C80.2227 95.7617 80.3281 95.8672 80.5391 96.0781C80.5391 96.0781 80.7969 96.1133 81.3125 96.1836C81.3828 96.1133 81.4648 96.043 81.5586 95.9727C81.4414 95.1758 81.4648 94.2383 81.6289 93.1602C81.793 91.8711 81.875 91.0742 81.875 90.7695C81.8516 88.707 82.0039 87.4766 82.332 87.0781C82.3555 87.0078 82.3906 86.9023 82.4375 86.7617C82.6484 86.8086 82.8477 86.9258 83.0352 87.1133C83.2695 87.3242 83.4336 87.4531 83.5273 87.5H84.1953C84.2891 87.5234 84.4297 87.6055 84.6172 87.7461C84.8047 87.9102 84.9219 88.0039 84.9688 88.0273C85.3438 87.8633 85.9531 87.8164 86.7969 87.8867C87.6641 87.9805 88.2734 87.957 88.625 87.8164C93.1484 86.0586 96.4297 83.375 98.4688 79.7656C98.8672 79.0625 99.2422 78.1367 99.5938 76.9883C99.6641 76.7539 99.6523 76.3789 99.5586 75.8633C99.4648 75.3008 99.4414 74.9375 99.4883 74.7734ZM82.2266 104.375H81.9805C82.0039 104.188 82.0391 103.93 82.0859 103.602C82.1094 103.625 82.1562 103.648 82.2266 103.672C82.2734 103.695 82.3086 103.707 82.332 103.707C82.3086 103.918 82.2734 104.07 82.2266 104.164V104.375ZM80.5391 106.906C79.8125 106.906 79.3672 106.484 79.2031 105.641C79.0391 104.867 79.1562 104.223 79.5547 103.707C79.7422 103.496 80.0703 103.391 80.5391 103.391C80.5391 103.883 80.5039 104.211 80.4336 104.375C80.5742 105.195 80.9844 105.652 81.6641 105.746C81.5703 105.91 81.3945 106.109 81.1367 106.344C80.832 106.602 80.6328 106.789 80.5391 106.906ZM84.9688 103.812C84.9453 103.766 84.8516 103.66 84.6875 103.496C84.5234 103.332 84.4297 103.227 84.4062 103.18C84.3828 103.039 84.4414 102.781 84.582 102.406C84.7227 102.031 84.7461 101.691 84.6523 101.387C84.3711 100.941 84.1484 100.59 83.9844 100.332C82.8828 99.8867 82.1445 99.7109 81.7695 99.8047C80.668 100.086 80.1523 100.227 80.2227 100.227C80.1523 100.508 79.9531 100.766 79.625 101C79.2031 101.305 78.957 101.504 78.8867 101.598C78.8398 101.668 78.8047 101.785 78.7812 101.949C78.7578 102.137 78.7227 102.266 78.6758 102.336C78.6055 102.453 78.3711 102.77 77.9727 103.285C77.6445 103.707 77.4336 104.07 77.3398 104.375C77.2227 104.75 77.2344 105.383 77.375 106.273C77.5156 107.07 77.6562 107.562 77.7969 107.75C77.8203 107.773 77.8672 107.797 77.9375 107.82C78.0312 107.844 78.0898 107.855 78.1133 107.855C78.2773 108.02 78.3945 108.406 78.4648 109.016C78.3477 108.992 78.9922 109.238 80.3984 109.754C81.1484 110.012 81.8281 110.047 82.4375 109.859C83.3984 109.578 84.1484 108.887 84.6875 107.785C85.2031 106.707 85.2617 105.746 84.8633 104.902C85.0273 104.434 85.0625 104.07 84.9688 103.812Z" fill="#ECC839"/>
</g>
<defs>
<filter id="filter0_d_29500_113" x="0" y="0" width="176" height="176" filterUnits="userSpaceOnUse" color-interpolation-filters="sRGB">
<feFlood flood-opacity="0" result="BackgroundImageFix"/>
<feColorMatrix in="SourceAlpha" type="matrix" values="0 0 0 0 0 0 0 0 0 0 0 0 0 0 0 0 0 0 127 0" result="hardAlpha"/>
<feOffset/>
<feGaussianBlur stdDeviation="4"/>
<feComposite in2="hardAlpha" operator="out"/>
<feColorMatrix type="matrix" values="0 0 0 0 0.7125 0 0 0 0 0.234801 0 0 0 0 0 0 0 0 1 0"/>
<feBlend mode="normal" in2="BackgroundImageFix" result="effect1_dropShadow_29500_113"/>
<feBlend mode="normal" in="SourceGraphic" in2="effect1_dropShadow_29500_113" result="shape"/>
</filter>
<filter id="filter1_d_29500_113" x="66.3516" y="50.4961" width="41.3477" height="67.6445" filterUnits="userSpaceOnUse" color-interpolation-filters="sRGB">
<feFlood flood-opacity="0" result="BackgroundImageFix"/>
<feColorMatrix in="SourceAlpha" type="matrix" values="0 0 0 0 0 0 0 0 0 0 0 0 0 0 0 0 0 0 127 0" result="hardAlpha"/>
<feOffset/>
<feGaussianBlur stdDeviation="4"/>
<feComposite in2="hardAlpha" operator="out"/>
<feColorMatrix type="matrix" values="0 0 0 0 1 0 0 0 0 0.357143 0 0 0 0 0 0 0 0 1 0"/>
<feBlend mode="normal" in2="BackgroundImageFix" result="effect1_dropShadow_29500_113"/>
<feBlend mode="normal" in="SourceGraphic" in2="effect1_dropShadow_29500_113" result="shape"/>
</filter>
</defs>
</svg>
